<svg xmlns="http://www.w3.org/2000/svg" xmlns:xlink="http://www.w3.org/1999/xlink" preserveAspectRatio="xMidYMid" width="167" height="181" viewBox="0 0 167 181">
  <defs>
    <style>
      .cls-1, .cls-2, .cls-4 {
        fill: #fff;
      }

      .cls-1 {
        stroke: #fff;
        stroke-linejoin: round;
        stroke-width: 4px;
        fill-opacity: 0.1;
      }

      .cls-1:hover, cls-2:hover{
        stroke: #9f449b;
        stroke-linejoin: round;
        stroke-width: 4px;
        fill-opacity: 1;
        fill: #9f449b;
      }

      .cls-1, .cls-2 {
        fill-rule: evenodd;
      }

      .cls-3, .cls-4 {
        font-size: 18px;
      }

      .cls-4 {
        text-anchor: middle;
        font-family: latoregular, sans-serif;
      }
    </style>
  </defs>
  <path d="M63.233,172.136 C49.819,164.078 36.270,156.256 22.585,148.668 C8.900,141.080 2.193,129.463 2.464,113.818 C2.735,98.172 2.735,82.527 2.464,66.881 C2.193,51.236 8.900,39.619 22.585,32.031 C36.270,24.443 49.819,16.620 63.233,8.563 C76.647,0.506 90.060,0.506 103.474,8.563 C116.888,16.620 130.437,24.443 144.122,32.031 C157.807,39.619 164.514,51.236 164.243,66.881 C163.972,82.527 163.972,98.172 164.243,113.818 C164.514,129.463 157.807,141.080 144.122,148.668 C130.437,156.256 116.888,164.078 103.474,172.136 C90.060,180.193 76.647,180.193 63.233,172.136 Z" class="cls-1"/>
  <path d="M102.080,88.022 L65.628,88.022 C61.968,88.022 59.000,85.054 59.000,81.394 L59.000,41.627 C59.000,37.967 61.968,34.999 65.628,34.999 L102.080,34.999 C105.740,34.999 108.708,37.967 108.708,41.627 L108.708,81.394 C108.708,85.054 105.740,88.022 102.080,88.022 ZM105.394,41.627 C105.394,39.800 103.907,38.313 102.080,38.313 L65.628,38.313 C63.801,38.313 62.314,39.800 62.314,41.627 L62.314,81.394 C62.314,83.219 63.801,84.708 65.628,84.708 L102.080,84.708 C103.907,84.708 105.394,83.219 105.394,81.394 L105.394,41.627 ZM100.423,74.766 L67.285,74.766 C66.369,74.766 65.628,74.026 65.628,73.109 L65.628,43.284 C65.628,42.368 66.369,41.627 67.285,41.627 L100.423,41.627 C101.339,41.627 102.080,42.368 102.080,43.284 L102.080,73.109 C102.080,74.026 101.339,74.766 100.423,74.766 ZM67.285,73.109 L92.815,73.109 L88.239,67.809 L87.278,66.718 L73.912,51.568 L67.285,59.190 L67.285,73.109 ZM100.423,43.284 L67.285,43.284 L67.285,56.683 L72.670,50.473 C72.985,50.115 73.437,49.911 73.912,49.911 C74.388,49.911 74.840,50.115 75.155,50.473 L88.241,65.304 L92.553,60.414 C92.868,60.057 93.320,59.853 93.796,59.853 C94.271,59.853 94.723,60.057 95.038,60.414 L100.423,66.265 L100.423,43.284 ZM100.423,68.767 L93.796,61.510 L89.344,66.556 L95.024,73.109 L100.423,73.109 L100.423,68.767 ZM90.482,56.539 C87.736,56.539 85.511,54.314 85.511,51.568 C85.511,48.822 87.736,46.597 90.482,46.597 C93.228,46.597 95.453,48.822 95.453,51.568 C95.453,54.314 93.228,56.539 90.482,56.539 ZM90.482,48.254 C88.655,48.254 87.168,49.741 87.168,51.568 C87.168,53.395 88.655,54.882 90.482,54.882 C92.309,54.882 93.796,53.395 93.796,51.568 C93.796,49.741 92.309,48.254 90.482,48.254 Z" class="cls-2"/>
  <text x="85" y="133" class="cls-3"><tspan x="85" class="cls-4">Portfolio</tspan></text>
</svg>
