<svg xmlns="http://www.w3.org/2000/svg" xmlns:xlink="http://www.w3.org/1999/xlink" preserveAspectRatio="xMidYMid" width="167" height="181" viewBox="0 0 167 181">
  <defs>
    <style>
      .cls-1, .cls-2, .cls-4 {
        fill: #fff;
      }

      .cls-1 {
        stroke: #fff;
        stroke-linejoin: round;
        stroke-width: 4px;
        fill-opacity: 0.1;
      }

      .cls-1:hover, cls-2:hover{
        stroke: #9f449b;
        stroke-linejoin: round;
        stroke-width: 4px;
        fill-opacity: 1;
        fill: #9f449b;
      }


      .cls-1, .cls-2 {
        fill-rule: evenodd;
      }

      .cls-3, .cls-4 {
        font-size: 18px;
      }

      .cls-4 {
        text-anchor: middle;
        font-family: latoregular, sans-serif;
      }
    </style>
  </defs>
  <path d="M63.233,172.136 C49.819,164.078 36.270,156.255 22.585,148.668 C8.900,141.079 2.193,129.463 2.464,113.817 C2.735,98.172 2.735,82.527 2.464,66.882 C2.193,51.236 8.900,39.620 22.585,32.031 C36.270,24.443 49.819,16.621 63.233,8.563 C76.647,0.506 90.060,0.506 103.474,8.563 C116.888,16.621 130.437,24.443 144.122,32.031 C157.807,39.620 164.514,51.236 164.243,66.882 C163.972,82.527 163.972,98.172 164.243,113.817 C164.514,129.463 157.807,141.079 144.122,148.668 C130.437,156.255 116.888,164.078 103.474,172.136 C90.060,180.193 76.647,180.193 63.233,172.136 Z" class="cls-1"/>
  <path d="M111.441,90.587 C111.091,90.355 104.708,86.168 95.215,84.116 C98.697,79.701 100.933,73.768 101.883,69.818 C103.201,64.344 102.690,53.634 97.433,46.961 C94.360,43.060 90.060,40.999 85.000,40.999 C79.940,40.999 75.640,43.060 72.567,46.961 C67.310,53.634 66.799,64.344 68.117,69.818 C69.067,73.768 71.302,79.701 74.785,84.116 C65.292,86.168 58.909,90.355 58.559,90.587 C57.275,91.443 56.703,93.038 57.150,94.513 C57.596,95.990 58.958,97.000 60.500,97.000 L109.500,97.000 C111.042,97.000 112.404,95.990 112.850,94.513 C113.297,93.038 112.725,91.443 111.441,90.587 ZM92.467,81.947 L91.894,82.673 C87.721,87.467 82.279,87.467 78.106,82.673 L77.533,81.947 C72.659,75.770 70.241,67.603 71.282,59.810 C72.237,52.321 76.529,44.499 85.000,44.499 C93.471,44.499 97.763,52.321 98.718,59.810 C99.754,67.606 97.344,75.769 92.467,81.947 ZM60.500,93.499 C60.741,93.339 66.671,89.451 75.525,87.537 L79.873,86.595 C81.423,87.616 83.127,88.249 85.000,88.249 C86.873,88.249 88.577,87.616 90.127,86.595 L94.475,87.537 C103.260,89.435 109.168,93.281 109.500,93.499 L60.500,93.499 Z" class="cls-2"/>
  <text x="85" y="141" class="cls-3"><tspan x="85" class="cls-4">Team</tspan></text>
</svg>
