<svg xmlns="http://www.w3.org/2000/svg" xmlns:xlink="http://www.w3.org/1999/xlink" preserveAspectRatio="xMidYMid" width="167" height="181" viewBox="0 0 167 181">
  <defs>
    <style>
      .cls-1, .cls-2 {
        fill: #fff;
        fill-rule: evenodd;
      }

      .cls-1 {
        stroke: #fff;
        stroke-linejoin: round;
        stroke-width: 4px;
        fill-opacity: 0.1;
      }
    </style>
  </defs>
  <path d="M63.233,172.135 C49.819,164.079 36.270,156.256 22.585,148.667 C8.900,141.080 2.193,129.463 2.464,113.818 C2.735,98.172 2.735,82.526 2.464,66.881 C2.193,51.236 8.900,39.619 22.585,32.031 C36.270,24.443 49.819,16.620 63.233,8.563 C76.647,0.506 90.060,0.506 103.474,8.563 C116.888,16.620 130.437,24.443 144.122,32.031 C157.807,39.619 164.514,51.236 164.243,66.881 C163.972,82.526 163.972,98.172 164.243,113.818 C164.514,129.463 157.807,141.080 144.122,148.667 C130.437,156.256 116.888,164.079 103.474,172.135 C90.060,180.193 76.647,180.193 63.233,172.135 Z" class="cls-1"/>
  <path d="M83.248,109.938 C81.118,109.938 79.041,109.773 77.028,109.477 C75.650,111.156 69.716,116.943 63.418,117.974 C63.425,117.949 63.093,117.999 62.904,117.999 C61.894,117.999 61.077,117.183 61.077,116.173 C61.077,115.917 61.132,115.673 61.227,115.453 C61.227,115.453 61.225,115.453 61.223,115.453 C62.410,113.410 65.108,109.521 65.108,105.907 C65.108,105.848 65.124,105.812 65.124,105.757 C56.602,101.404 51.000,94.070 51.000,85.752 C51.000,72.395 65.437,61.566 83.248,61.566 C101.056,61.566 115.496,72.395 115.496,85.752 C115.496,99.108 101.056,109.938 83.248,109.938 ZM83.248,65.597 C67.689,65.597 55.031,74.639 55.031,85.752 C55.031,92.216 59.489,98.353 66.958,102.167 C68.307,102.856 69.155,104.244 69.155,105.757 C69.155,105.869 69.149,105.999 69.137,106.129 C69.096,108.212 68.480,110.235 67.695,112.038 C70.596,110.312 73.050,107.972 73.912,106.920 C74.684,105.980 75.831,105.446 77.028,105.446 C77.221,105.446 77.418,105.460 77.613,105.490 C79.504,105.767 81.399,105.907 83.248,105.907 C98.807,105.907 111.465,96.865 111.465,85.752 C111.465,74.639 98.807,65.597 83.248,65.597 ZM83.248,73.659 C72.511,73.659 63.093,79.310 63.093,85.752 C63.093,86.309 62.642,86.759 62.085,86.759 C61.528,86.759 61.077,86.309 61.077,85.752 C61.077,78.105 71.230,71.644 83.248,71.644 C83.805,71.644 84.256,72.094 84.256,72.651 C84.256,73.208 83.805,73.659 83.248,73.659 Z" class="cls-2"/>
</svg>
