<svg xmlns="http://www.w3.org/2000/svg" xmlns:xlink="http://www.w3.org/1999/xlink" preserveAspectRatio="xMidYMid" width="172" height="186" viewBox="0 0 172 186">
  <defs>
    <style>
      .cls-1 {
        fill: #fff;
        stroke: #ccd0d2;
        stroke-linejoin: round;
        stroke-width: 4px;
        fill-opacity: 0.1;
      }

      .cls-1, .cls-2 {
        fill-rule: evenodd;
      }

      .cls-2 {
        fill: #d1d5d7;
      }

              .cls-1:hover{
                    stroke: #9f449b;
                  }

                  .cls-2:hover{
                    fill: #9f449b;
                  }
    </style>
  </defs>
  <path d="M65.568,175.072 C52.080,166.970 38.456,159.104 24.696,151.474 C10.936,143.844 4.192,132.164 4.464,116.431 C4.737,100.700 4.737,84.968 4.464,69.237 C4.192,53.505 10.936,41.824 24.696,34.194 C38.456,26.564 52.080,18.699 65.568,10.597 C79.056,2.494 92.544,2.494 106.032,10.597 C119.519,18.699 133.144,26.564 146.904,34.194 C160.664,41.824 167.408,53.505 167.136,69.237 C166.863,84.968 166.863,100.700 167.136,116.431 C167.408,132.164 160.664,143.844 146.904,151.474 C133.144,159.104 119.519,166.970 106.032,175.072 C92.544,183.173 79.056,183.173 65.568,175.072 Z" class="cls-1"/>
  <path d="M103.345,126.998 L71.897,127.001 C68.639,127.001 66.000,124.362 66.000,121.104 L66.000,70.000 C66.000,66.743 68.639,64.104 71.897,64.104 L103.345,64.102 C106.602,64.102 109.241,66.742 109.241,69.998 L109.241,121.102 C109.241,124.359 106.602,126.998 103.345,126.998 ZM105.310,69.998 C105.310,68.914 104.429,68.033 103.345,68.033 L71.897,68.035 C70.812,68.035 69.931,68.915 69.931,70.000 L69.931,73.931 L105.310,73.929 L105.310,69.998 ZM105.310,75.895 L69.931,75.897 L69.931,115.200 L105.310,115.197 L105.310,75.895 ZM105.310,117.163 L69.931,117.165 L69.931,121.104 C69.931,122.188 70.812,123.069 71.897,123.069 L103.345,123.067 C104.429,123.067 105.310,122.187 105.310,121.102 L105.310,117.163 ZM88.603,121.095 L86.638,121.095 C86.095,121.095 85.655,120.655 85.655,120.111 C85.655,119.568 86.095,119.129 86.638,119.129 L88.603,119.129 C89.147,119.129 89.586,119.568 89.586,120.111 C89.586,120.655 89.147,121.095 88.603,121.095 ZM84.672,69.998 L90.569,69.998 C91.112,69.998 91.552,70.438 91.552,70.981 C91.552,71.524 91.112,71.964 90.569,71.964 L84.672,71.964 C84.129,71.964 83.690,71.524 83.690,70.981 C83.690,70.438 84.129,69.998 84.672,69.998 Z" class="cls-2"/>
</svg>
