<svg xmlns="http://www.w3.org/2000/svg" xmlns:xlink="http://www.w3.org/1999/xlink" preserveAspectRatio="xMidYMid" width="167" height="181" viewBox="0 0 167 181">
  <defs>
    <style>
      .cls-1, .cls-2 {
        fill: #fff;
        fill-rule: evenodd;
      }

      .cls-1 {
        stroke: #fff;
        stroke-linejoin: round;
        stroke-width: 4px;
        fill-opacity: 0.1;
      }
    </style>
  </defs>
  <path d="M63.233,172.136 C49.819,164.078 36.270,156.256 22.585,148.667 C8.900,141.080 2.193,129.463 2.464,113.817 C2.735,98.172 2.735,82.527 2.464,66.881 C2.193,51.236 8.900,39.620 22.585,32.031 C36.270,24.443 49.819,16.620 63.233,8.563 C76.647,0.506 90.060,0.506 103.474,8.563 C116.888,16.620 130.437,24.443 144.122,32.031 C157.807,39.620 164.514,51.236 164.243,66.881 C163.972,82.527 163.972,98.172 164.243,113.817 C164.514,129.463 157.807,141.080 144.122,148.667 C130.437,156.256 116.888,164.078 103.474,172.136 C90.060,180.193 76.647,180.193 63.233,172.136 Z" class="cls-1"/>
  <path d="M110.624,79.916 L104.975,81.220 L104.975,99.092 C104.975,104.700 98.557,109.656 81.734,109.656 C64.912,109.656 58.494,104.700 58.494,99.092 L58.494,81.220 L52.842,79.916 C49.951,79.249 47.930,76.710 47.930,73.738 C47.930,70.767 49.951,68.227 52.844,67.561 L80.309,61.223 C80.798,61.113 81.268,61.062 81.734,61.062 C82.201,61.062 82.671,61.113 83.132,61.216 L110.627,67.561 C113.518,68.227 115.539,70.767 115.539,73.738 C115.539,76.710 113.518,79.249 110.624,79.916 ZM62.719,99.092 C62.719,101.428 69.058,105.430 81.734,105.430 C94.411,105.430 100.750,101.428 100.750,99.092 L100.750,82.196 L83.160,86.254 C82.671,86.363 82.201,86.415 81.734,86.415 C81.268,86.415 80.798,86.363 80.337,86.260 L62.719,82.196 L62.719,99.092 ZM109.676,71.679 L82.210,65.341 C82.053,65.306 81.894,65.287 81.734,65.287 C81.574,65.287 81.416,65.306 81.259,65.341 L53.793,71.679 C52.834,71.900 52.155,72.754 52.155,73.738 C52.155,74.722 52.834,75.577 53.793,75.798 L81.259,82.135 C81.416,82.171 81.574,82.190 81.734,82.190 C81.894,82.190 82.053,82.171 82.210,82.135 L109.676,75.798 C110.635,75.577 111.314,74.722 111.314,73.738 C111.314,72.754 110.635,71.900 109.676,71.679 ZM109.201,103.317 L109.201,84.302 C109.201,83.134 110.147,82.190 111.314,82.190 C112.480,82.190 113.427,83.134 113.427,84.302 L113.427,103.317 C113.427,104.485 112.480,105.430 111.314,105.430 C110.147,105.430 109.201,104.485 109.201,103.317 ZM111.314,107.543 C113.647,107.543 115.539,113.661 115.539,115.994 C115.539,118.328 113.647,120.220 111.314,120.220 C108.980,120.220 107.088,118.328 107.088,115.994 C107.088,113.661 108.980,107.543 111.314,107.543 Z" class="cls-2"/>
</svg>
