<svg xmlns="http://www.w3.org/2000/svg" xmlns:xlink="http://www.w3.org/1999/xlink" preserveAspectRatio="xMidYMid" width="167" height="181" viewBox="0 0 167 181">
  <defs>
    <style>
      .cls-1, .cls-2, .cls-4 {
        fill: #fff;
      }

      .cls-1 {
        stroke: #fff;
        stroke-linejoin: round;
        stroke-width: 4px;
        fill-opacity: 0.1;
      }

      .cls-1:hover, cls-2:hover, .cls-4:hover{
        stroke: #9f449b;
        stroke-linejoin: round;
        stroke-width: 4px;
        fill-opacity: 1;
        fill: #9f449b;
      }

      .cls-1, .cls-2 {
        fill-rule: evenodd;
      }

      .cls-3, .cls-4 {
        font-size: 18px;
      }

      .cls-4 {
        text-anchor: middle;
        font-family: "Lato";
      }
    </style>
  </defs>
  <path d="M63.233,172.136 C49.819,164.078 36.270,156.256 22.585,148.668 C8.900,141.080 2.193,129.463 2.464,113.818 C2.735,98.172 2.735,82.527 2.464,66.881 C2.193,51.236 8.900,39.619 22.585,32.031 C36.270,24.443 49.819,16.620 63.233,8.563 C76.647,0.506 90.060,0.506 103.474,8.563 C116.888,16.620 130.437,24.443 144.122,32.031 C157.807,39.619 164.514,51.236 164.243,66.881 C163.972,82.527 163.972,98.172 164.243,113.818 C164.514,129.463 157.807,141.080 144.122,148.668 C130.437,156.256 116.888,164.078 103.474,172.136 C90.060,180.193 76.647,180.193 63.233,172.136 Z" class="cls-1"/>
  <path d="M83.513,80.769 C81.498,80.769 79.533,80.613 77.628,80.334 C76.324,81.923 70.709,87.398 64.750,88.374 C64.757,88.349 64.442,88.397 64.264,88.397 C63.308,88.397 62.535,87.624 62.535,86.670 C62.535,86.427 62.587,86.196 62.677,85.988 C62.677,85.988 62.675,85.988 62.673,85.988 C63.796,84.055 66.350,80.375 66.350,76.955 C66.350,76.899 66.364,76.866 66.364,76.814 C58.300,72.694 53.000,65.755 53.000,57.884 C53.000,45.246 66.660,34.999 83.513,34.999 C100.364,34.999 114.027,45.246 114.027,57.884 C114.027,70.523 100.364,80.769 83.513,80.769 ZM83.513,38.814 C68.791,38.814 56.814,47.369 56.814,57.884 C56.814,64.001 61.032,69.807 68.100,73.416 C69.376,74.069 70.179,75.382 70.179,76.814 C70.179,76.920 70.173,77.043 70.162,77.166 C70.123,79.136 69.540,81.051 68.797,82.756 C71.542,81.123 73.864,78.908 74.680,77.914 C75.410,77.024 76.496,76.519 77.628,76.519 C77.811,76.519 77.997,76.533 78.181,76.561 C79.971,76.823 81.764,76.955 83.513,76.955 C98.235,76.955 110.212,68.400 110.212,57.884 C110.212,47.369 98.235,38.814 83.513,38.814 ZM83.513,46.442 C73.354,46.442 64.442,51.789 64.442,57.884 C64.442,58.412 64.016,58.838 63.489,58.838 C62.962,58.838 62.535,58.412 62.535,57.884 C62.535,50.649 72.142,44.535 83.513,44.535 C84.040,44.535 84.467,44.961 84.467,45.488 C84.467,46.016 84.040,46.442 83.513,46.442 Z" class="cls-2"/>
  <text x="84" y="133" class="cls-3"><tspan x="84" class="cls-4">Services</tspan></text>
</svg>
