<svg xmlns="http://www.w3.org/2000/svg" xmlns:xlink="http://www.w3.org/1999/xlink" preserveAspectRatio="xMidYMid" width="167" height="181" viewBox="0 0 167 181">
  <defs>
    <style>
      .cls-1, .cls-2, .cls-4 {
        fill: #fff;
      }

      .cls-1 {
        stroke: #fff;
        stroke-linejoin: round;
        stroke-width: 4px;
        fill-opacity: 0.1;
      }

      .cls-1:hover, cls-2:hover, .cls-4:hover{
        stroke: #9f449b;
        stroke-linejoin: round;
        stroke-width: 4px;
        fill-opacity: 1;
        fill: #9f449b;
      }

      .cls-1, .cls-2 {
        fill-rule: evenodd;
      }

      .cls-3, .cls-4 {
        font-size: 18px;
      }

      .cls-4 {
        text-anchor: middle;
        font-family: "Lato";
      }
    </style>
  </defs>
  <path d="M63.233,172.136 C49.819,164.078 36.270,156.255 22.585,148.668 C8.900,141.079 2.193,129.463 2.464,113.817 C2.735,98.172 2.735,82.527 2.464,66.882 C2.193,51.236 8.900,39.620 22.585,32.031 C36.270,24.443 49.819,16.621 63.233,8.563 C76.647,0.506 90.060,0.506 103.474,8.563 C116.888,16.621 130.437,24.443 144.122,32.031 C157.807,39.620 164.514,51.236 164.243,66.882 C163.972,82.527 163.972,98.172 164.243,113.817 C164.514,129.463 157.807,141.079 144.122,148.668 C130.437,156.255 116.888,164.078 103.474,172.136 C90.060,180.193 76.647,180.193 63.233,172.136 Z" class="cls-1"/>
  <path d="M101.171,42.290 C100.872,42.095 100.529,41.999 100.187,41.999 C99.836,41.999 99.486,42.099 99.182,42.304 L44.807,78.554 C44.247,78.925 43.939,79.580 44.010,80.250 C44.079,80.918 44.515,81.495 45.139,81.743 L59.321,87.418 L65.988,99.086 C66.307,99.645 66.900,99.993 67.543,100.000 C67.550,100.000 67.555,100.000 67.562,100.000 C68.198,100.000 68.789,99.664 69.116,99.118 L72.881,92.842 L90.452,99.869 C90.668,99.957 90.896,100.000 91.124,100.000 C91.432,100.000 91.739,99.922 92.013,99.766 C92.491,99.497 92.822,99.026 92.912,98.484 L101.975,44.109 C102.093,43.398 101.778,42.683 101.171,42.290 ZM49.685,79.658 L91.689,51.653 L61.149,84.345 C60.988,84.250 60.845,84.122 60.668,84.052 L49.685,79.658 ZM62.468,85.620 C62.464,85.613 62.459,85.609 62.456,85.602 L96.789,48.853 L67.520,94.459 L62.468,85.620 ZM89.707,95.666 L74.226,89.475 C73.856,89.330 73.474,89.280 73.095,89.259 L96.934,52.305 L89.707,95.666 Z" class="cls-2"/>
  <text x="82" y="141" class="cls-3"><tspan x="82" class="cls-4">Contact</tspan></text>
</svg>
