<svg xmlns="http://www.w3.org/2000/svg" xmlns:xlink="http://www.w3.org/1999/xlink" preserveAspectRatio="xMidYMid" width="167" height="181" viewBox="0 0 167 181">
  <defs>
    <style>
      .cls-1, .cls-2, .cls-4 {
        fill: #fff;
      }

      .cls-1 {
        stroke: #fff;
        stroke-linejoin: round;
        stroke-width: 4px;
        fill-opacity: 0.1;
      }

      .cls-1:hover, cls-2:hover, .cls-4:hover{
        stroke: #9f449b;
        stroke-linejoin: round;
        stroke-width: 4px;
        fill-opacity: 1;
        fill: #9f449b;
      }

      .cls-1, .cls-2 {
        fill-rule: evenodd;
      }

      .cls-3, .cls-4 {
        font-size: 18px;
      }

      .cls-4 {
        text-anchor: middle;
        font-family: "Lato";
      }
    </style>
  </defs>
  <path d="M63.233,172.136 C49.819,164.078 36.270,156.255 22.585,148.668 C8.900,141.079 2.193,129.463 2.464,113.817 C2.735,98.172 2.735,82.527 2.464,66.882 C2.193,51.236 8.900,39.620 22.585,32.031 C36.270,24.443 49.819,16.621 63.233,8.563 C76.647,0.506 90.060,0.506 103.474,8.563 C116.888,16.621 130.437,24.443 144.122,32.031 C157.807,39.620 164.514,51.236 164.243,66.882 C163.972,82.527 163.972,98.172 164.243,113.817 C164.514,129.463 157.807,141.079 144.122,148.668 C130.437,156.255 116.888,164.078 103.474,172.136 C90.060,180.193 76.647,180.193 63.233,172.136 Z" class="cls-1"/>
  <path d="M109.279,44.676 C106.297,41.699 102.373,39.999 98.502,39.999 C95.239,39.999 92.232,41.210 90.039,43.402 L81.217,52.290 C81.191,52.315 81.159,52.333 81.132,52.360 C81.118,52.374 81.109,52.393 81.095,52.407 L81.099,52.411 L62.376,71.276 C61.514,72.132 60.887,73.201 60.540,74.366 L56.283,89.786 C56.278,89.829 56.000,91.042 56.000,91.656 C56.000,95.159 58.844,97.999 62.353,97.999 C63.050,97.999 64.401,97.667 64.450,97.660 L79.816,93.620 C80.982,93.273 82.044,92.643 82.906,91.780 L110.570,63.898 C115.602,58.861 115.035,50.422 109.279,44.676 ZM85.026,83.130 C84.878,81.492 84.416,79.889 83.724,78.366 L100.859,61.232 C101.907,64.542 101.371,68.005 99.073,70.302 C99.059,70.317 99.042,70.325 99.028,70.339 L99.050,70.363 L85.044,84.480 C85.046,84.030 85.067,83.588 85.026,83.130 ZM82.814,76.713 C82.138,75.602 81.370,74.531 80.417,73.581 C79.309,72.473 78.038,71.606 76.713,70.876 L93.990,53.600 C95.344,54.202 96.645,55.059 97.792,56.206 C98.771,57.183 99.530,58.276 100.112,59.415 L82.814,76.713 ZM75.006,70.019 C73.328,69.343 71.569,68.957 69.808,68.934 L83.770,54.866 C85.906,52.781 89.020,52.181 92.085,52.942 L75.006,70.019 ZM63.555,94.145 C63.356,94.191 62.742,94.346 62.324,94.374 C60.834,94.359 59.625,93.146 59.625,91.656 C59.646,91.353 59.768,90.829 59.809,90.636 L61.717,83.722 C63.788,83.666 66.018,84.473 67.770,86.229 C69.551,88.007 70.388,90.281 70.296,92.374 L63.555,94.145 ZM72.084,91.904 C72.040,89.473 71.050,86.942 69.054,84.949 C67.165,83.057 64.694,81.967 62.229,81.869 L64.034,75.331 C64.165,74.895 64.424,74.467 64.742,74.090 C68.378,71.488 73.969,72.256 77.854,76.144 C81.963,80.252 82.598,86.267 79.433,89.861 C79.223,89.971 79.010,90.077 78.782,90.146 L72.084,91.904 ZM108.005,61.337 L104.952,64.413 C104.952,64.004 105.001,63.610 104.964,63.192 C104.646,59.686 103.008,56.294 100.355,53.643 C97.403,50.689 93.485,48.993 89.609,48.982 L92.613,45.956 C94.112,44.457 96.208,43.624 98.502,43.624 C101.421,43.624 104.415,44.944 106.718,47.241 C108.881,49.400 110.171,52.082 110.354,54.795 C110.524,57.328 109.690,59.650 108.005,61.337 Z" class="cls-2"/>
  <text x="83" y="141" class="cls-3"><tspan x="83" class="cls-4">Blog</tspan></text>
</svg>
