<svg xmlns="http://www.w3.org/2000/svg" xmlns:xlink="http://www.w3.org/1999/xlink" preserveAspectRatio="xMidYMid" width="172" height="186" viewBox="0 0 172 186">
  <defs>
    <style>
      .cls-1 {
        fill: #fff;
        stroke: #ccd0d2;
        stroke-linejoin: round;
        stroke-width: 4px;
        fill-opacity: 0.1;
      }

      .cls-1, .cls-2 {
        fill-rule: evenodd;
      }

      .cls-2 {
        fill: #ccd0d2;
      }

      .cls-1:hover{
        stroke: #9f449b;
      }

      .cls-2:hover{
        fill: #9f449b;
      }
    </style>
  </defs>
  <path d="M65.568,175.072 C52.080,166.970 38.456,159.104 24.696,151.474 C10.936,143.844 4.192,132.164 4.464,116.431 C4.737,100.700 4.737,84.968 4.464,69.237 C4.192,53.505 10.936,41.824 24.696,34.194 C38.456,26.564 52.080,18.699 65.568,10.597 C79.056,2.494 92.544,2.494 106.032,10.597 C119.519,18.699 133.143,26.564 146.904,34.194 C160.664,41.824 167.408,53.505 167.136,69.237 C166.863,84.968 166.863,100.700 167.136,116.431 C167.408,132.164 160.664,143.844 146.904,151.474 C133.143,159.104 119.519,166.970 106.032,175.072 C92.544,183.173 79.056,183.173 65.568,175.072 Z" class="cls-1"/>
  <path d="M116.825,100.031 C116.559,100.295 92.519,124.068 92.519,124.068 C89.918,126.640 85.711,126.640 83.110,124.068 C83.110,124.068 61.156,102.357 58.804,100.031 C50.577,91.892 50.577,78.701 58.804,70.565 C66.789,62.667 79.545,62.501 87.814,69.932 C96.084,62.501 108.843,62.667 116.825,70.565 C125.052,78.701 125.052,91.892 116.825,100.031 ZM113.688,73.665 C107.436,67.480 97.379,67.263 90.797,73.178 L87.814,75.857 L84.833,73.178 C78.250,67.263 68.196,67.480 61.942,73.665 C55.454,80.079 55.454,90.515 61.942,96.929 L86.248,120.966 C87.109,121.822 88.518,121.822 89.381,120.966 L113.688,96.929 C120.175,90.515 120.175,80.079 113.688,73.665 ZM72.974,77.674 L72.972,77.674 C69.027,77.674 65.827,80.870 65.827,84.811 L65.827,84.813 C65.827,85.420 65.335,85.912 64.727,85.912 C64.119,85.912 63.628,85.420 63.628,84.813 C63.628,79.660 67.809,75.484 72.965,75.480 C72.970,75.480 72.970,75.477 72.974,75.477 C73.582,75.477 74.073,75.968 74.073,76.576 C74.073,77.183 73.582,77.674 72.974,77.674 Z" class="cls-2"/>
</svg>
