<svg xmlns="http://www.w3.org/2000/svg" xmlns:xlink="http://www.w3.org/1999/xlink" preserveAspectRatio="xMidYMid" width="172" height="186" viewBox="0 0 172 186">
  <defs>
    <style>
      .cls-1 {
        fill: #fff;
        stroke: #ccd0d2;
        stroke-linejoin: round;
        stroke-width: 4px;
        fill-opacity: 0.1;
      }

      .cls-1, .cls-2 {
        fill-rule: evenodd;
      }

      .cls-2 {
        fill: #d1d5d7;
      }

              .cls-1:hover{
                    stroke: #9f449b;
                  }

                  .cls-2:hover{
                    fill: #9f449b;
                  }
    </style>
  </defs>
  <path d="M65.568,175.072 C52.080,166.970 38.456,159.104 24.696,151.474 C10.936,143.844 4.192,132.164 4.464,116.431 C4.737,100.700 4.737,84.968 4.464,69.237 C4.192,53.505 10.936,41.824 24.696,34.194 C38.456,26.564 52.080,18.699 65.568,10.597 C79.056,2.494 92.544,2.494 106.032,10.597 C119.520,18.699 133.144,26.564 146.904,34.194 C160.664,41.824 167.408,53.505 167.136,69.237 C166.863,84.968 166.863,100.700 167.136,116.431 C167.408,132.164 160.664,143.844 146.904,151.474 C133.144,159.104 119.520,166.970 106.032,175.072 C92.544,183.173 79.056,183.173 65.568,175.072 Z" class="cls-1"/>
  <path d="M110.740,74.611 L108.426,67.648 C107.907,66.093 106.453,65.044 104.812,65.044 L70.524,65.044 C68.884,65.044 67.429,66.093 66.910,67.648 L64.577,74.615 C62.589,74.743 61.000,76.358 61.000,78.378 L61.000,84.093 C61.000,86.197 62.706,87.902 64.810,87.902 L66.780,87.902 C66.780,88.046 66.722,88.179 66.739,88.322 L70.548,122.610 C70.762,124.539 72.392,125.999 74.334,125.999 L101.002,125.999 C102.944,125.999 104.574,124.539 104.788,122.610 L108.597,88.322 C108.614,88.179 108.556,88.046 108.556,87.902 L110.526,87.902 C112.630,87.902 114.336,86.197 114.336,84.093 L114.336,78.378 C114.336,76.351 112.738,74.728 110.740,74.611 ZM70.524,68.853 L104.812,68.853 L106.717,74.568 L68.619,74.568 L70.524,68.853 ZM74.334,122.190 L73.700,116.475 L101.637,116.475 L101.002,122.190 L74.334,122.190 ZM101.849,114.570 L73.488,114.570 L71.371,95.522 L103.966,95.522 L101.849,114.570 ZM104.178,93.617 L71.159,93.617 L70.524,87.902 L104.812,87.902 L104.178,93.617 ZM110.526,84.093 L64.810,84.093 L64.810,78.378 L110.526,78.378 L110.526,84.093 Z" class="cls-2"/>
</svg>
